<?xml version="1.0" encoding="utf-8"?>
<!-- Generator: Adobe Illustrator 24.0.0, SVG Export Plug-In . SVG Version: 6.00 Build 0)  -->
<svg version="1.1" id="Camada_1" xmlns="http://www.w3.org/2000/svg" xmlns:xlink="http://www.w3.org/1999/xlink" x="0px" y="0px"
	 viewBox="0 0 497 372" style="enable-background:new 0 0 497 372;" xml:space="preserve">
<style type="text/css">
	.st0{fill:#5B4C80;}
	.st1{fill:#EFEFEF;}
	.st2{fill:#9A86D0;}
</style>
<g id="Grupo_2135" transform="translate(-368 -3791)">
	<circle id="Elipse_141" class="st0" cx="622.83" cy="3975.45" r="172"/>
	<g id="Grupo_1927" transform="translate(368 3812.192)">
		<g id="Camada_4" transform="translate(52.448 43.379)">
			<g id="Grupo_1912" transform="translate(99.21 17.374)">
				<path id="Caminho_2521" class="st1" d="M288.04,120.17L262.78,17.45l-33.77,7.49l-28.77,3l-11.06-0.69l-38.82-11.23
					c-19.66-4.79-40.18-4.79-59.84,0L62.7,18.98c0,0-13.66,16.95-34.79,21.02c0,0-22.54,6.08-21.02,13.77
					c0,0,13.21,25.04,62.26,8.76l46.44-1.51l38.38,37.51l39.89,45.1l6.36,11.74h8.32c0,0,30.54-2.58,44.03-24.88l17.25-6.12
					L288.04,120.17z"/>
			</g>
			<g id="Grupo_1913" transform="translate(55.847 141.734)">
				<path id="Caminho_2522" class="st1" d="M101.69,78.73l-12.5-9.82L46.61,39.36L27.08,25.79L12.14,12.45c0,0-11.94,12.54,0,23.49
					c0,0,8.99,8.61,20.79-1.63c0,0-7.01,15.32,6.2,25.37c0,0,12.89,3.72,20.31-1.27c0,0-4.77,14.32,6.49,19.23
					c0,0,8.85,1.24,14.35-6.05c0,0-8.06,10.28,1.43,14.67C81.7,86.25,97.51,92.1,101.69,78.73z"/>
			</g>
			<g id="Grupo_1914">
				<path id="Caminho_2523" class="st2" d="M56.99,12.44c0,0,28.88,24.87,61.56,15.36c0,0,35.66-16.17,71.89-8.12l28.91,10.29
					l-57.44,6.38c-2.92,3.85-6.44,7.2-10.42,9.91c-8.9,5.86-18.78,10.08-29.18,12.45c-4.32,1.36-8.46,3.24-12.33,5.59
					c-2.82,1.83-6.08,4.15-3.87,6.83c0,0,4.13,9.38,17.71,13.43c10.11,3.02,26.6,0.88,48.18-6.18h42.82l43.41,42.5l25.53,29.29
					l14,17.65l2.47,11.37l-8.9,10.13l-9.39,2.72l-12.92-3.95l0.16,12.05l-4.96,7l-4.02,4.42l-6.97,2.35l-8.74-0.6l-12.46-6.17
					l-5.29,15.27l-7.14,4.07l-11.04-2.76l-9.64-6.98l-5.81,12.51l-3.95,3.4h-8.4l-18.62-8.93l-22.16-16.59l-49.54-34.4l-13.18-10.28
					l-22.51-22.52L25.49,115.2l-18.66-10L56.99,12.44z"/>
			</g>
		</g>
		<g id="Camada_3" transform="translate(107.034 184.542)">
			<g id="Grupo_1915" transform="translate(70.279 52.955)">
				<path id="Caminho_2524" class="st0" d="M20.24,36.38c-3.92-0.16-7.74-1.28-11.13-3.26l-0.17-0.11c-1.34-1.41-2.09-3.28-2.1-5.23
					c-0.21-4.45,2.36-9.61,7.65-15.33l1.25,1.15c-6.09,6.59-7.28,11.21-7.21,13.92c-0.03,1.52,0.5,3,1.49,4.16
					c5.75,3.05,10.69,3.78,14.69,2.17c5.27-2.12,7.13-7.7,7.15-7.75l1.62,0.52c-0.08,0.26-2.1,6.37-8.11,8.8
					C23.74,36.06,22,36.39,20.24,36.38z"/>
			</g>
			<g id="Grupo_1916" transform="translate(51.543 38.248)">
				<path id="Caminho_2525" class="st0" d="M19.44,40.81c-2.71-0.04-5.33-0.95-7.48-2.6c-2.16-0.98-3.8-2.84-4.52-5.1
					c-2.62-7.84,3.95-20.14,4.23-20.66l1.5,0.81c-0.07,0.12-6.5,12.18-4.11,19.32c0.58,1.86,1.93,3.37,3.72,4.14l0.2,0.12
					c2.38,1.83,5.42,2.59,8.39,2.08c4.36-0.89,8.31-4.78,11.74-11.57l1.52,0.77c-3.68,7.29-8.03,11.48-12.94,12.47
					C20.94,40.74,20.19,40.81,19.44,40.81z"/>
			</g>
			<g id="Grupo_1917" transform="translate(24.091 18.716)">
				<path id="Caminho_2526" class="st0" d="M26.1,44.77c-3.52-0.11-6.97-0.95-10.15-2.47c-4.07-2.44-7.08-6.33-8.42-10.88
					c-1.61-5.66-0.44-12.05,3.49-18.98l1.48,0.84c-3.7,6.52-4.82,12.47-3.34,17.67c1.23,4.08,3.91,7.58,7.54,9.82
					c5.99,2.66,11.09,3.01,15.09,1.01c5.65-2.83,7.23-9.52,7.25-9.59l1.66,0.37c-0.07,0.31-1.76,7.53-8.13,10.73
					C30.56,44.29,28.34,44.8,26.1,44.77z"/>
			</g>
			<g id="Grupo_1918">
				<path id="Caminho_2527" class="st0" d="M23.34,40.78c-5.36,0-10.2-3.41-10.44-3.58c-3.6-2.61-5.61-5.83-6-9.58
					c-0.8-7.73,5.6-14.87,5.87-15.17l1.26,1.14c-0.06,0.07-6.16,6.89-5.43,13.86c0.34,3.25,2.12,6.06,5.3,8.37
					c0.06,0.04,6.65,4.68,12.39,2.81c3.17-1.03,5.56-3.88,7.09-8.48l1.61,0.54c-1.72,5.14-4.47,8.35-8.19,9.56
					C25.68,40.61,24.51,40.79,23.34,40.78z"/>
			</g>
		</g>
		<g id="Camada_1_1_" transform="translate(0 0)">
			<g id="Grupo_1919" transform="translate(51.27 42.053)">
				<path id="Caminho_2528" class="st0" d="M185.47,234.83c-14.75,0-34.54-18.21-35.96-19.53l-65.97-45.8l-0.06-0.07
					c-0.46-0.49-45.89-49.08-75.81-62.12l-0.84-0.37l0.43-0.81c1.83-3.47,44.84-85.03,50.21-92.84l0.58-0.84l0.72,0.73
					c0.21,0.21,21.7,21.35,56.31,16.43l37.08-10.78c1.43-0.25,32.95-5.44,47.94,5.44c1.32,0.55,16.97,6.94,27.81,6.94v1.7
					c-11.63,0-27.88-6.82-28.56-7.11l-0.17-0.1c-14.38-10.53-46.32-5.27-46.64-5.21l-37.16,10.8c-3.54,0.51-7.1,0.76-10.67,0.77
					c-16.98,0.03-33.42-5.98-46.38-16.96c-6.84,10.93-44.69,82.61-49.15,91.04c29.72,13.47,73.54,60.01,75.48,62.09l65.97,45.81
					c0.25,0.23,25.14,23.37,39.15,18.42c4.87-1.71,7.92-6.76,9.08-14.99l1.68,0.24c-1.25,8.91-4.68,14.42-10.2,16.36
					C188.78,234.58,187.13,234.85,185.47,234.83z"/>
			</g>
			<g id="Grupo_1920" transform="translate(248.894 208.085)">
				<path id="Caminho_2529" class="st0" d="M53.59,50.5c-17.97,0-45.52-35.41-46.76-37.01l1.34-1.04
					c0.32,0.41,31.73,40.78,48.37,35.94c0.79-0.14,17.12-3.27,15.19-24.93l1.69-0.15c2.07,23.25-16.31,26.7-16.5,26.73
					C55.84,50.35,54.72,50.5,53.59,50.5z"/>
			</g>
			<g id="Grupo_1921" transform="translate(225.806 230.442)">
				<path id="Caminho_2530" class="st0" d="M44.52,40.28c-7.2,0-14.09-5.24-14.45-5.52L6.83,13.71l1.14-1.26l23.19,21.02
					c0.05,0.03,9.97,7.57,17.68,4.28c5-2.14,8.08-8.36,9.17-18.51l1.69,0.18c-1.16,10.81-4.59,17.5-10.2,19.89
					C47.92,39.97,46.23,40.3,44.52,40.28z"/>
			</g>
			<g id="Grupo_1922" transform="translate(150.695 60.537)">
				<path id="Caminho_2531" class="st0" d="M183.66,175.52c-7.31,0-15.74-4.08-25.07-12.14c-1.34-0.82-19.9-12.59-27.62-41.21
					l1.64-0.44c7.78,28.84,26.71,40.12,26.9,40.23l0.13,0.09c9.74,8.43,18.69,12.47,25.89,11.68c3.32-0.26,6.41-1.8,8.62-4.29
					l0.1-0.13l0.14-0.09c3.67-2.27,5.77-5.17,6.25-8.62c1.09-7.82-6.36-16.09-6.43-16.18l-33.35-38.71l-44.63-43.62
					c-3.56,0.07-32.55,0.66-42.27,0c-3.49,1.53-50.53,21.38-66.84-7.69c-0.51-1.35-0.38-2.85,0.34-4.1
					c1.5-3.05,6.4-7.43,21.22-10.92c0.21-0.07,27.25-8.72,34.25-20.62l0.21-0.36l48.97-5.8c0.42-0.03,38.27-2.42,72.11,12.67
					l10.8,2.43c20.26-1.03,42.66-4.59,68.5-10.86l0.4,1.65c-25.99,6.31-48.53,9.88-68.93,10.91l-0.12,0.01l-11.28-2.55
					c-33.48-14.96-70.97-12.59-71.34-12.57l-48.1,5.7c-7.63,12.26-33.92,20.68-35.04,21.03c-14.85,3.5-18.96,7.73-20.1,9.93
					c-0.5,0.8-0.64,1.78-0.39,2.69c16.05,28.61,64.33,7.03,64.82,6.81l0.2-0.09l0.22,0.02c9.99,0.71,42.35,0.01,42.68,0l0.36-0.01
					l45.19,44.17l33.39,38.74c0.31,0.34,8.04,8.92,6.84,17.53c-0.55,3.93-2.87,7.21-6.91,9.75c-2.47,2.79-5.92,4.51-9.64,4.83
					C185.08,175.48,184.37,175.52,183.66,175.52z"/>
			</g>
			<g id="Grupo_1923" transform="translate(344.95 167.639)">
				<path id="Caminho_2532" class="st0" d="M13.22,49.75c-2.14,0-4.27-0.14-6.39-0.42l0.22-1.68c31.2,4.11,51.34-24.23,51.54-24.52
					l0.1-0.15l0.16-0.09c5.02-3.01,18.38-6.92,35.73-10.43l0.34,1.67c-17,3.44-30.06,7.23-35.04,10.14
					C58.3,26.4,40.61,49.75,13.22,49.75z"/>
			</g>
			<g id="Grupo_1924" transform="translate(305.179 143.604)">
				<path id="Caminho_2533" class="st0" d="M20.51,24.17c-4.59,0.04-9.18-0.39-13.69-1.26l0.38-1.66
					c0.27,0.06,27.23,5.99,47.32-8.81l1.01,1.37C44.05,22.27,30.43,24.17,20.51,24.17z"/>
			</g>
			<g id="Grupo_1925" transform="translate(400.055 24.753)">
				<path id="Caminho_2534" class="st0" d="M42.73,170.97l-3.91-14.59l-26-105.74L6.83,25.2l48.75-12.75l35.19,151.61L42.73,170.97z
					 M14.47,50.25l26,105.71l3.51,13.11l44.72-6.44L54.32,14.54L8.86,26.42L14.47,50.25z"/>
			</g>
			<g id="Grupo_1926">
				<path id="Caminho_2535" class="st0" d="M47.69,172.38l-40.86-26.2l6.59-13.59l49.53-96.98l12.12-23.16l45.21,22.26L47.69,172.38
					z M9.02,145.56l38.03,24.39l70.91-134.49L75.8,14.7L64.45,36.39l-49.51,96.95L9.02,145.56z"/>
			</g>
		</g>
	</g>
</g>
</svg>
